<?xml version="1.0" standalone="no"?>
<!DOCTYPE svg PUBLIC "-//W3C//DTD SVG 20010904//EN"
 "http://www.w3.org/TR/2001/REC-SVG-20010904/DTD/svg10.dtd">
<svg version="1.0" xmlns="http://www.w3.org/2000/svg"
 width="16.000000pt" height="16.000000pt" viewBox="0 0 16.000000 16.000000"
 preserveAspectRatio="xMidYMid meet">
<metadata>
Created by potrace 1.11, written by Peter Selinger 2001-2013
</metadata>
<g transform="translate(0.000000,16.000000) scale(0.004000,-0.004000)"
fill="#000000" stroke="none">
<path d="M1655 3987 c-6 -7 -31 -39 -55 -72 -24 -33 -70 -91 -103 -129 -75
-88 -111 -142 -102 -155 4 -7 104 -11 300 -11 338 0 336 -1 263 79 -23 25 -54
59 -68 75 -14 16 -32 36 -40 45 -8 9 -37 44 -65 76 -95 112 -106 120 -130 92z"/>
<path d="M725 3768 c-2 -7 -11 -49 -19 -93 -8 -44 -26 -139 -40 -212 -14 -72
-26 -138 -26 -146 0 -23 32 -25 54 -5 11 10 28 18 38 18 10 0 18 3 18 8 0 4
17 16 38 27 20 11 60 34 88 52 29 18 54 30 56 27 3 -2 11 2 18 11 7 8 18 15
25 15 8 0 15 3 17 8 4 8 147 92 158 92 4 0 10 6 13 14 7 17 -17 39 -58 54 -96
36 -224 86 -250 97 -54 25 -107 45 -117 45 -5 0 -10 -6 -13 -12z"/>
<path d="M2690 3718 c-83 -37 -231 -96 -323 -129 -21 -7 -44 -21 -52 -29 -13
-15 -12 -19 9 -37 13 -12 26 -19 29 -17 2 2 10 -2 17 -11 7 -8 18 -15 25 -15
8 0 15 -3 17 -7 2 -5 29 -21 61 -38 31 -16 57 -33 57 -38 0 -4 5 -5 10 -2 6 3
10 2 10 -2 0 -5 12 -14 28 -20 30 -14 75 -39 119 -69 15 -10 30 -19 33 -19 16
-4 60 -29 60 -36 0 -4 9 -5 21 -2 23 6 23 11 -11 188 -11 55 -28 143 -38 195
-19 101 -25 109 -72 88z"/>
<path d="M1510 3545 c-124 -20 -316 -79 -433 -133 -56 -25 -103 -50 -105 -54
-2 -5 -8 -8 -14 -8 -15 0 -93 -56 -203 -146 -162 -133 -284 -286 -383 -480
-127 -252 -162 -411 -157 -729 3 -221 11 -284 60 -445 42 -142 156 -354 259
-484 96 -121 265 -272 388 -347 72 -45 261 -139 266 -134 3 3 10 1 16 -4 13
-10 108 -36 119 -33 4 1 7 -3 7 -9 0 -5 5 -7 10 -4 6 4 16 2 23 -3 7 -5 30
-10 52 -11 22 0 51 -3 65 -6 64 -15 304 -17 411 -5 63 7 125 15 139 16 14 1
25 3 25 4 0 1 7 3 16 5 9 1 30 6 47 9 29 7 30 6 57 -68 15 -42 32 -76 37 -76
5 0 7 -4 3 -9 -3 -6 3 -14 12 -20 10 -5 15 -12 11 -16 -7 -7 87 -104 137 -143
43 -32 99 -44 185 -40 54 2 85 9 105 22 17 11 31 19 33 18 1 -1 11 6 21 16 11
9 33 28 50 42 17 14 31 30 31 37 0 7 6 16 14 20 19 11 88 138 79 146 -3 4 -1
7 6 7 7 0 10 4 6 9 -3 5 -1 12 4 15 5 4 15 31 21 62 l12 55 45 -3 46 -3 19
-79 c38 -164 132 -303 239 -354 62 -30 156 -30 218 0 67 32 145 116 185 201
41 85 76 220 76 295 0 46 3 54 25 64 14 6 25 15 25 20 0 4 5 8 11 8 7 0 27 16
46 35 19 19 31 35 27 35 -4 0 2 8 12 18 21 19 33 37 64 94 19 35 20 55 20 434
0 384 -1 398 -21 430 -11 19 -18 34 -15 34 3 0 -2 9 -11 19 -32 35 -48 55 -48
61 0 10 -62 70 -73 70 -6 0 -15 7 -20 16 -5 9 -12 15 -16 15 -3 -1 -18 7 -33
16 -20 14 -51 19 -123 20 -52 1 -97 3 -100 3 -3 0 -18 13 -35 28 -109 102
-207 181 -220 176 -12 -5 -15 -43 -17 -212 -3 -170 -5 -202 -15 -180 -6 14
-17 29 -22 33 -7 4 -11 46 -11 105 0 212 -47 437 -134 633 -99 226 -272 443
-487 609 -73 57 -344 200 -404 214 -16 3 -68 17 -115 31 -182 52 -392 66 -570
38z m501 -558 c120 -36 188 -68 287 -133 148 -99 289 -263 357 -418 32 -72 70
-204 80 -273 l7 -53 -466 0 -466 0 0 -240 0 -240 33 0 32 0 0 -205 c0 -140 4
-208 11 -213 6 -4 10 -16 8 -27 -2 -10 2 -25 8 -32 6 -8 8 -16 5 -19 -3 -3 4
-26 15 -51 11 -24 17 -48 13 -51 -4 -4 -91 -7 -193 -7 -174 1 -193 3 -273 28
-121 37 -189 69 -287 133 -107 72 -204 169 -276 276 -65 99 -97 167 -133 287
-35 116 -44 337 -19 461 82 402 380 705 782 794 51 11 111 15 229 12 137 -3
172 -7 246 -29z"/>
<path d="M216 3110 c-103 -16 -192 -32 -196 -37 -13 -13 143 -447 162 -451 11
-2 48 52 129 194 62 108 120 203 127 211 7 7 11 13 7 13 -3 0 2 14 12 30 9 17
20 30 24 30 4 0 6 8 5 18 -4 26 -54 24 -270 -8z"/>
<path d="M2967 3070 c-3 -11 -2 -20 2 -20 4 0 15 -13 24 -30 10 -16 15 -30 12
-30 -4 0 0 -6 8 -14 7 -8 64 -102 126 -210 62 -108 119 -196 126 -196 14 0 28
16 31 35 1 6 31 95 68 199 36 105 66 198 66 207 0 21 7 19 -238 54 -212 30
-218 31 -225 5z"/>
<path d="M48 2255 l-48 -43 0 -225 0 -225 54 -37 c30 -20 59 -34 65 -31 8 5
11 101 11 301 0 258 -2 294 -16 299 -20 8 -11 12 -66 -39z"/>
<path d="M163 1423 c-54 -141 -149 -430 -143 -436 8 -9 382 -66 431 -67 18 0
28 6 32 20 3 11 2 20 -2 20 -4 0 -15 14 -24 30 -10 17 -15 30 -12 30 4 0 0 6
-8 14 -7 8 -64 102 -126 210 -108 188 -133 218 -148 179z"/>
<path d="M618 812 c-23 -4 -22 -14 3 -142 22 -112 45 -231 55 -293 4 -21 12
-41 19 -43 6 -3 45 9 86 26 80 33 172 70 259 102 71 27 95 47 78 64 -7 6 -101
62 -208 124 -107 62 -198 116 -201 122 -3 5 -9 9 -13 9 -17 -2 -24 0 -42 17
-10 10 -27 16 -36 14z"/>
<path d="M1425 449 c-8 -12 30 -72 79 -127 18 -20 64 -77 102 -127 107 -140
99 -134 132 -99 15 16 50 56 77 89 28 33 59 69 70 80 76 77 144 165 139 179
-5 14 -41 16 -299 16 -196 0 -296 -4 -300 -11z"/>
</g>
</svg>
